# xmcd
#
# Track frame offsets: 
#        150
#        18007
#        33792
#        48800
#        64917
#        81002
#        95237
#        111642
#        127480
#        143775
#        159095
#        174280
#
# Disc length: 2530 seconds
#
# Revision: 1
# Processed by: cddbd v1.5.2PL0 Copyright (c) Steve Scherf et al.
# Submitted via: ExactAudioCopy v0.95b3
#
DISCID=9a09e00c
DTITLE=I Collage - I grandi successi originali CD2
DYEAR=2000
DGENRE=Rock
TTITLE0=Tu mi rubi l'anima
TTITLE1=Sapor di scuola
TTITLE2=Sole rosso
TTITLE3=Stasera tu
TTITLE4=Troppo bella
TTITLE5=Tu dolcemente mia
TTITLE6=Un'altra estate
TTITLE7=Voli anche tu
TTITLE8=Strano
TTITLE9=Dormi amore
TTITLE10=La gente parla
TTITLE11=Io... se permetti
EXTD=
EXTT0=
EXTT1=
EXTT2=
EXTT3=
EXTT4=
EXTT5=
EXTT6=
EXTT7=
EXTT8=
EXTT9=
EXTT10=
EXTT11=
PLAYORDER=
